<svg xmlns="http://www.w3.org/2000/svg" width="1024" height="1024" viewBox="0 0 1024 1024">
  <defs>
    <linearGradient id="bg" x1="140" y1="120" x2="900" y2="920" gradientUnits="userSpaceOnUse">
      <stop offset="0" stop-color="#151b27"/>
      <stop offset="0.58" stop-color="#0c111a"/>
      <stop offset="1" stop-color="#250d12"/>
    </linearGradient>
    <radialGradient id="glow" cx="0" cy="0" r="1" gradientUnits="userSpaceOnUse" gradientTransform="translate(760 250) rotate(135) scale(700)">
      <stop offset="0" stop-color="#fb7185" stop-opacity="0.34"/>
      <stop offset="0.5" stop-color="#fb7185" stop-opacity="0.08"/>
      <stop offset="1" stop-color="#fb7185" stop-opacity="0"/>
    </radialGradient>
    <linearGradient id="bars" x1="220" y1="760" x2="620" y2="280" gradientUnits="userSpaceOnUse">
      <stop offset="0" stop-color="#dc2626"/>
      <stop offset="0.55" stop-color="#ef4444"/>
      <stop offset="1" stop-color="#fb923c"/>
    </linearGradient>
    <linearGradient id="line" x1="240" y1="720" x2="830" y2="310" gradientUnits="userSpaceOnUse">
      <stop offset="0" stop-color="#fecaca"/>
      <stop offset="0.5" stop-color="#ffffff"/>
      <stop offset="1" stop-color="#ffe2b4"/>
    </linearGradient>
    <filter id="softShadow" x="-20%" y="-20%" width="140%" height="140%">
      <feDropShadow dx="0" dy="30" stdDeviation="30" flood-color="#020617" flood-opacity="0.32"/>
    </filter>
  </defs>

  <rect width="1024" height="1024" rx="228" fill="url(#bg)"/>
  <rect width="1024" height="1024" rx="228" fill="url(#glow)"/>

  <g opacity="0.08">
    <path d="M170 790H854" stroke="#f8fafc" stroke-width="18" stroke-linecap="round"/>
    <path d="M170 650H854" stroke="#f8fafc" stroke-width="12" stroke-linecap="round"/>
    <path d="M170 510H854" stroke="#f8fafc" stroke-width="12" stroke-linecap="round"/>
    <path d="M170 370H854" stroke="#f8fafc" stroke-width="12" stroke-linecap="round"/>
  </g>

  <g filter="url(#softShadow)">
    <rect x="206" y="536" width="112" height="246" rx="34" fill="url(#bars)"/>
    <rect x="376" y="410" width="112" height="372" rx="34" fill="url(#bars)"/>
    <rect x="546" y="250" width="112" height="532" rx="34" fill="url(#bars)"/>

    <path
      d="M196 670L358 508L474 624L780 318"
      fill="none"
      stroke="url(#line)"
      stroke-width="74"
      stroke-linecap="round"
      stroke-linejoin="round"
    />
    <path
      d="M665 318H780V433"
      fill="none"
      stroke="url(#line)"
      stroke-width="74"
      stroke-linecap="round"
      stroke-linejoin="round"
    />
  </g>
  
  <rect x="56" y="56" width="912" height="912" rx="186" fill="none" stroke="#ffffff" stroke-opacity="0.05" stroke-width="10"/>
</svg>
